<?xml version="1.0" encoding="UTF-8" standalone="no"?>
<!DOCTYPE svg PUBLIC "-//W3C//DTD SVG 1.1//EN" "http://www.w3.org/Graphics/SVG/1.1/DTD/svg11.dtd">
<svg width="100%" height="100%" viewBox="0 0 1267 368" version="1.1" xmlns="http://www.w3.org/2000/svg" xmlns:xlink="http://www.w3.org/1999/xlink" xml:space="preserve" xmlns:serif="http://www.serif.com/" style="fill-rule:evenodd;clip-rule:evenodd;stroke-linejoin:round;stroke-miterlimit:2;">
    <g transform="matrix(1,0,0,1,-147.498698,-598.10919)">
        <g transform="matrix(1,0,0,1,6.5,-33)">
            <path d="M174.731,978.652L174.731,985L140.999,985L140.999,927.83L148.16,927.83L148.16,978.652L174.731,978.652Z" style="fill:white;fill-rule:nonzero;"/>
        </g>
        <g transform="matrix(1,0,0,1,6.5,-33)">
            <path d="M195.169,927.83L202.981,927.83L202.981,937.067L200.743,948.338L197.407,948.338L195.169,937.067L195.169,927.83Z" style="fill:white;fill-rule:nonzero;"/>
        </g>
        <g transform="matrix(1,0,0,1,6.5,-33)">
            <path d="M270.417,985L263.215,985L263.215,957.819L236.725,957.819L236.725,985L229.564,985L229.564,927.83L236.725,927.83L236.725,951.593L263.215,951.593L263.215,927.83L270.417,927.83L270.417,985Z" style="fill:white;fill-rule:nonzero;"/>
        </g>
        <g transform="matrix(1,0,0,1,6.5,-33)">
            <path d="M334.353,927.83L315.31,960.911L315.31,985L308.107,985L308.107,960.911L289.024,927.83L297.365,927.83L312.543,954.157L327.883,927.83L334.353,927.83Z" style="fill:white;fill-rule:nonzero;"/>
        </g>
        <g transform="matrix(1,0,0,1,6.5,-33)">
            <path d="M358.412,985L351.251,985L351.251,927.83L370.416,927.83C373.291,927.83 375.855,928.095 378.106,928.624C380.358,929.153 382.379,930.163 384.169,931.655C385.986,933.201 387.411,935.189 388.441,937.616C389.472,940.044 389.988,942.506 389.988,945.002C389.988,947.253 389.554,949.45 388.686,951.593C387.817,953.736 386.597,955.567 385.023,957.087C381.85,960.206 377.265,961.766 371.27,961.766L358.412,961.766L358.412,985ZM358.412,955.825L370.497,955.825C372.504,955.825 374.213,955.635 375.624,955.256C377.035,954.876 378.35,954.103 379.571,952.936C381.687,950.82 382.745,948.175 382.745,945.002C382.745,941.068 381.416,938.071 378.757,936.009C377.645,935.141 376.499,934.565 375.319,934.28C374.139,933.995 372.694,933.853 370.985,933.853L358.412,933.853L358.412,955.825Z" style="fill:white;fill-rule:nonzero;"/>
        </g>
        <g transform="matrix(1,0,0,1,6.5,-33)">
            <path d="M431.056,985.814C427.882,985.814 424.972,985.264 422.328,984.166C419.683,983.067 417.458,981.589 415.654,979.731C413.851,977.872 412.318,975.702 411.056,973.22C409.795,970.738 408.88,968.12 408.31,965.367C407.74,962.614 407.455,959.772 407.455,956.842C407.455,953.913 407.733,951.051 408.29,948.257C408.846,945.463 409.748,942.777 410.995,940.2C412.243,937.623 413.762,935.365 415.553,933.425C417.343,931.486 419.561,929.933 422.206,928.766C424.85,927.6 427.773,927.017 430.974,927.017C434.094,927.017 436.963,927.566 439.58,928.665C442.198,929.763 444.409,931.235 446.213,933.079C448.017,934.924 449.549,937.081 450.811,939.549C452.072,942.018 452.994,944.615 453.578,947.341C454.161,950.068 454.452,952.868 454.452,955.744C454.452,958.619 454.168,961.454 453.598,964.248C453.028,967.042 452.12,969.748 450.872,972.366C449.624,974.983 448.105,977.282 446.314,979.263C444.524,981.243 442.32,982.83 439.702,984.023C437.085,985.217 434.202,985.814 431.056,985.814ZM431.056,979.995C433.416,979.995 435.532,979.48 437.403,978.449C439.275,977.418 440.794,976.089 441.961,974.461C443.127,972.834 444.097,970.942 444.87,968.785C445.643,966.628 446.186,964.513 446.498,962.437C446.81,960.362 446.965,958.267 446.965,956.151C446.965,949.857 445.826,944.663 443.548,940.566C442.218,938.234 440.482,936.375 438.339,934.992C436.196,933.608 433.823,932.917 431.218,932.917C428.777,932.917 426.593,933.425 424.667,934.443C422.741,935.46 421.182,936.775 419.988,938.389C418.794,940.004 417.811,941.896 417.038,944.066C416.265,946.236 415.729,948.372 415.431,950.474C415.132,952.577 414.983,954.727 414.983,956.924C414.983,959.013 415.146,961.081 415.471,963.129C415.797,965.177 416.36,967.232 417.16,969.294C417.96,971.355 418.957,973.166 420.151,974.726C421.344,976.286 422.877,977.554 424.749,978.53C426.62,979.507 428.723,979.995 431.056,979.995Z" style="fill:white;fill-rule:nonzero;"/>
        </g>
        <g transform="matrix(1,0,0,1,6.5,-33)">
            <path d="M493.771,934.097L493.771,985L486.609,985L486.609,934.097L470.374,934.097L470.374,927.83L510.006,927.83L510.006,934.097L493.771,934.097Z" style="fill:white;fill-rule:nonzero;"/>
        </g>
        <g transform="matrix(1,0,0,1,6.5,-33)">
            <path d="M569.873,985L562.671,985L562.671,957.819L536.182,957.819L536.182,985L529.02,985L529.02,927.83L536.182,927.83L536.182,951.593L562.671,951.593L562.671,927.83L569.873,927.83L569.873,985Z" style="fill:white;fill-rule:nonzero;"/>
        </g>
        <g transform="matrix(1,0,0,1,6.5,-33)">
            <path d="M631.896,978.815L631.896,985L594.909,985L594.909,927.83L631.083,927.83L631.083,934.015L602.071,934.015L602.071,952.163L625.061,952.163L625.061,957.9L602.071,957.9L602.071,978.815L631.896,978.815ZM617.329,923.761L599.426,915.908L602.233,910.496L618.998,920.425L617.329,923.761Z" style="fill:white;fill-rule:nonzero;"/>
        </g>
        <g transform="matrix(1,0,0,1,6.5,-33)">
            <path d="M656.811,957.005C656.811,959.148 656.953,961.223 657.238,963.231C657.523,965.238 658.031,967.273 658.764,969.334C659.496,971.396 660.432,973.193 661.571,974.726C662.711,976.258 664.209,977.506 666.068,978.469C667.926,979.432 670.035,979.914 672.395,979.914C674.918,979.914 677.162,979.446 679.129,978.51C681.096,977.574 682.683,976.353 683.89,974.848C685.097,973.342 686.094,971.545 686.881,969.456C687.667,967.368 688.21,965.279 688.508,963.19C688.807,961.101 688.956,958.904 688.956,956.598C688.956,954.347 688.8,952.163 688.488,950.047C688.176,947.931 687.627,945.815 686.84,943.7C686.053,941.584 685.07,939.746 683.89,938.186C682.71,936.626 681.17,935.358 679.271,934.382C677.373,933.405 675.243,932.917 672.883,932.917C669.981,932.917 667.315,933.737 664.888,935.378C662.46,937.02 660.649,939.278 659.455,942.153C657.692,946.304 656.811,951.254 656.811,957.005ZM649.12,956.842C649.12,948.65 650.897,942.004 654.451,936.904C659.035,930.312 665.179,927.017 672.883,927.017C676.111,927.017 679.054,927.573 681.713,928.685C684.371,929.797 686.609,931.296 688.427,933.181C690.244,935.066 691.784,937.277 693.045,939.814C694.306,942.35 695.222,945.015 695.792,947.809C696.361,950.603 696.646,953.479 696.646,956.436C696.646,959.555 696.3,962.587 695.609,965.53C694.917,968.473 693.886,971.267 692.516,973.912C691.146,976.557 689.281,978.856 686.921,980.809C684.561,982.762 681.849,984.132 678.783,984.919L678.783,986.18C678.783,990.33 681.225,992.406 686.107,992.406C688.522,992.406 690.773,992.216 692.862,991.836L692.862,997.492C690.61,998.224 688.562,998.59 686.718,998.59C682.405,998.59 679.054,997.519 676.667,995.376C674.28,993.233 673.046,990.046 672.965,985.814C669.736,985.732 666.8,985.149 664.155,984.064C661.51,982.979 659.266,981.535 657.421,979.731C655.576,977.927 654.023,975.804 652.762,973.363C651.5,970.921 650.578,968.317 649.995,965.55C649.412,962.783 649.12,959.881 649.12,956.842Z" style="fill:white;fill-rule:nonzero;"/>
        </g>
        <g transform="matrix(1,0,0,1,6.5,-33)">
            <path d="M757.693,927.83L757.693,964.004C757.693,967.422 757.429,970.338 756.9,972.752C756.371,975.167 755.238,977.418 753.502,979.507C750.003,983.711 744.862,985.814 738.08,985.814C731.136,985.814 726.036,983.983 722.781,980.321C720.909,978.205 719.688,975.865 719.119,973.302C718.549,970.738 718.264,967.639 718.264,964.004L718.264,927.83L725.426,927.83L725.426,964.004C725.426,965.523 725.453,966.798 725.507,967.829C725.561,968.86 725.758,970.094 726.097,971.532C726.436,972.969 726.931,974.149 727.582,975.072C728.64,976.645 730.187,977.778 732.221,978.469C734.256,979.161 736.412,979.507 738.691,979.507C740.671,979.507 742.59,979.168 744.448,978.49C746.307,977.811 747.805,976.781 748.945,975.397C749.813,974.393 750.457,973.166 750.877,971.715C751.298,970.263 751.535,969.063 751.59,968.114C751.644,967.164 751.671,965.794 751.671,964.004L751.671,927.83L757.693,927.83Z" style="fill:white;fill-rule:nonzero;"/>
        </g>
        <g transform="matrix(1,0,0,1,6.5,-33)">
            <path d="M819.554,978.815L819.554,985L782.566,985L782.566,927.83L818.74,927.83L818.74,934.015L789.728,934.015L789.728,952.163L812.718,952.163L812.718,957.9L789.728,957.9L789.728,978.815L819.554,978.815Z" style="fill:white;fill-rule:nonzero;"/>
        </g>
        <g transform="matrix(1,0,0,1,6.5,-33)">
            <path d="M896.359,927.83L914.914,985L907.59,985L901.853,968.317L880.694,968.317L875.607,985L869.585,985L888.099,927.83L896.359,927.83ZM900.266,962.905L891.517,935.48L882.688,962.905L900.266,962.905Z" style="fill:white;fill-rule:nonzero;"/>
        </g>
        <g transform="matrix(1,0,0,1,6.5,-33)">
            <path d="M972.909,927.83L972.909,964.004C972.909,967.422 972.645,970.338 972.116,972.752C971.587,975.167 970.454,977.418 968.718,979.507C965.219,983.711 960.078,985.814 953.297,985.814C946.352,985.814 941.252,983.983 937.997,980.321C936.125,978.205 934.905,975.865 934.335,973.302C933.765,970.738 933.48,967.639 933.48,964.004L933.48,927.83L940.642,927.83L940.642,964.004C940.642,965.523 940.669,966.798 940.723,967.829C940.778,968.86 940.974,970.094 941.313,971.532C941.652,972.969 942.147,974.149 942.799,975.072C943.856,976.645 945.403,977.778 947.437,978.469C949.472,979.161 951.628,979.507 953.907,979.507C955.887,979.507 957.806,979.168 959.665,978.49C961.523,977.811 963.021,976.781 964.161,975.397C965.029,974.393 965.673,973.166 966.094,971.715C966.514,970.263 966.751,969.063 966.806,968.114C966.86,967.164 966.887,965.794 966.887,964.004L966.887,927.83L972.909,927.83Z" style="fill:white;fill-rule:nonzero;"/>
        </g>
        <g transform="matrix(1,0,0,1,6.5,-33)">
            <path d="M1015.117,934.097L1015.117,985L1007.955,985L1007.955,934.097L991.72,934.097L991.72,927.83L1031.352,927.83L1031.352,934.097L1015.117,934.097Z" style="fill:white;fill-rule:nonzero;"/>
        </g>
        <g transform="matrix(1,0,0,1,6.5,-33)">
            <path d="M1091.137,985L1083.61,985L1073.03,960.26L1057.202,960.26L1057.202,985L1050.04,985L1050.04,927.83L1071.443,927.83C1077.086,927.83 1081.426,928.997 1084.464,931.33C1086.363,932.795 1087.848,934.632 1088.92,936.843C1089.991,939.054 1090.527,941.38 1090.527,943.822C1090.527,947.267 1089.571,950.352 1087.658,953.079C1085.746,955.805 1083.149,957.616 1079.866,958.511L1091.137,985ZM1057.202,954.401L1070.63,954.401C1072.935,954.401 1074.821,954.211 1076.285,953.831C1077.75,953.452 1079.134,952.597 1080.436,951.268C1082.389,949.315 1083.366,946.806 1083.366,943.74C1083.366,940.241 1082.036,937.61 1079.378,935.846C1078.266,935.06 1077.126,934.558 1075.96,934.341C1074.794,934.124 1073.288,934.015 1071.443,934.015L1057.202,934.015L1057.202,954.401Z" style="fill:white;fill-rule:nonzero;"/>
        </g>
        <g transform="matrix(1,0,0,1,6.5,-33)">
            <path d="M1149.906,978.815L1149.906,985L1112.918,985L1112.918,927.83L1149.092,927.83L1149.092,934.015L1120.08,934.015L1120.08,952.163L1143.07,952.163L1143.07,957.9L1120.08,957.9L1120.08,978.815L1149.906,978.815Z" style="fill:white;fill-rule:nonzero;"/>
        </g>
        <g transform="matrix(1,0,0,1,6.5,-33)">
            <path d="M1225.235,927.83L1225.235,985L1218.033,985L1218.033,935.073L1217.707,935.073L1199.641,985L1194.799,985L1176.285,935.073L1175.959,935.073L1175.959,985L1169.978,985L1169.978,927.83L1180.638,927.83L1197.891,973.566L1214.737,927.83L1225.235,927.83Z" style="fill:white;fill-rule:nonzero;"/>
        </g>
        <g transform="matrix(1,0,0,1,6.5,-33)">
            <path d="M1286.688,978.815L1286.688,985L1249.701,985L1249.701,927.83L1285.875,927.83L1285.875,934.015L1256.863,934.015L1256.863,952.163L1279.853,952.163L1279.853,957.9L1256.863,957.9L1256.863,978.815L1286.688,978.815Z" style="fill:white;fill-rule:nonzero;"/>
        </g>
        <g transform="matrix(1,0,0,1,6.5,-33)">
            <path d="M1348.753,927.83L1348.753,985L1341.754,985L1312.66,935.155L1312.66,985L1306.679,985L1306.679,927.83L1315.672,927.83L1342.771,974.421L1342.771,927.83L1348.753,927.83Z" style="fill:white;fill-rule:nonzero;"/>
        </g>
        <g transform="matrix(1,0,0,1,6.5,-33)">
            <path d="M1390.472,934.097L1390.472,985L1383.31,985L1383.31,934.097L1367.075,934.097L1367.075,927.83L1406.707,927.83L1406.707,934.097L1390.472,934.097Z" style="fill:white;fill-rule:nonzero;"/>
        </g>
        <g transform="matrix(301.115562,0,0,301.115562,349.230706,811.901239)">
            <path d="M0.374,0.006C0.317,0.006 0.269,-0.004 0.229,-0.023C0.19,-0.042 0.158,-0.068 0.133,-0.101C0.108,-0.135 0.09,-0.172 0.079,-0.215C0.067,-0.257 0.062,-0.302 0.062,-0.348L0.062,-0.71L0.21,-0.71L0.21,-0.348C0.21,-0.319 0.213,-0.292 0.218,-0.265C0.224,-0.239 0.233,-0.215 0.246,-0.194C0.259,-0.173 0.275,-0.157 0.296,-0.145C0.317,-0.132 0.343,-0.126 0.374,-0.126C0.405,-0.126 0.431,-0.132 0.452,-0.145C0.473,-0.157 0.49,-0.174 0.503,-0.195C0.515,-0.216 0.524,-0.24 0.53,-0.266C0.536,-0.293 0.539,-0.32 0.539,-0.348L0.539,-0.71L0.687,-0.71L0.687,-0.348C0.687,-0.299 0.681,-0.253 0.668,-0.21C0.656,-0.168 0.638,-0.13 0.613,-0.098C0.588,-0.065 0.555,-0.04 0.516,-0.022C0.476,-0.004 0.429,0.006 0.374,0.006Z" style="fill:white;fill-rule:nonzero;"/>
        </g>
        <g transform="matrix(301.115562,0,0,301.115562,592.340935,811.901239)">
            <path d="M0.606,-0.58L0.384,-0.58L0.384,-0L0.236,-0L0.236,-0.58L0.013,-0.58L0.013,-0.71L0.606,-0.71L0.606,-0.58Z" style="fill:white;fill-rule:nonzero;"/>
        </g>
        <g transform="matrix(301.115562,0,0,301.115562,796.656573,811.901239)">
            <path d="M0.567,-0.13L0.567,-0L0.072,-0L0.072,-0.71L0.558,-0.71L0.558,-0.58L0.22,-0.58L0.22,-0.422L0.511,-0.422L0.511,-0.301L0.22,-0.301L0.22,-0.13L0.567,-0.13Z" style="fill:white;fill-rule:nonzero;"/>
        </g>
        <g transform="matrix(301.115562,0,0,301.115562,995.265414,811.901239)">
            <path d="M0.259,-0.71L0.413,-0.71L0.668,-0L0.516,-0L0.454,-0.17L0.217,-0.17L0.156,-0L0.003,-0L0.259,-0.71ZM0.428,-0.273L0.336,-0.558L0.241,-0.273L0.428,-0.273Z" style="fill:white;fill-rule:nonzero;"/>
        </g>
        <g transform="matrix(301.115562,0,0,301.115562,1206.790366,811.901239)">
            <path d="M0.374,0.006C0.317,0.006 0.269,-0.004 0.229,-0.023C0.19,-0.042 0.158,-0.068 0.133,-0.101C0.108,-0.135 0.09,-0.172 0.079,-0.215C0.067,-0.257 0.062,-0.302 0.062,-0.348L0.062,-0.71L0.21,-0.71L0.21,-0.348C0.21,-0.319 0.213,-0.292 0.218,-0.265C0.224,-0.239 0.233,-0.215 0.246,-0.194C0.259,-0.173 0.275,-0.157 0.296,-0.145C0.317,-0.132 0.343,-0.126 0.374,-0.126C0.405,-0.126 0.431,-0.132 0.452,-0.145C0.473,-0.157 0.49,-0.174 0.503,-0.195C0.515,-0.216 0.524,-0.24 0.53,-0.266C0.536,-0.293 0.539,-0.32 0.539,-0.348L0.539,-0.71L0.687,-0.71L0.687,-0.348C0.687,-0.299 0.681,-0.253 0.668,-0.21C0.656,-0.168 0.638,-0.13 0.613,-0.098C0.588,-0.065 0.555,-0.04 0.516,-0.022C0.476,-0.004 0.429,0.006 0.374,0.006Z" style="fill:white;fill-rule:nonzero;"/>
        </g>
        <path d="M321.781,756.962C321.781,769.003 318.609,779.084 312.267,787.203C305.925,795.322 297.404,801.468 286.703,805.641C276.002,809.815 264.21,811.901 251.324,811.901L147.853,811.901L147.853,598.109L263.966,598.109C274.004,598.109 282.686,600.769 290.013,606.089C297.34,611.408 302.961,618.261 306.875,626.647C310.79,635.033 312.747,643.742 312.747,652.776C312.747,662.882 310.143,672.53 304.935,681.721C299.726,690.911 292.092,697.769 282.033,702.295C294.279,705.909 303.965,712.389 311.091,721.736C318.217,731.083 321.781,742.825 321.781,756.962ZM192.433,636.247L192.433,686.303L245.001,686.303C249.317,686.303 253.24,685.335 256.77,683.398C260.3,681.461 263.16,678.615 265.35,674.861C267.539,671.106 268.634,666.572 268.634,661.259C268.634,655.986 267.668,651.523 265.735,647.869C263.803,644.214 261.2,641.364 257.925,639.317C254.651,637.271 250.945,636.247 246.808,636.247L192.433,636.247ZM276.566,748.149C276.566,743.19 275.555,738.705 273.532,734.693C271.508,730.682 268.787,727.469 265.368,725.055C261.95,722.642 257.971,721.435 253.432,721.435L192.433,721.435L192.433,774.097L251.324,774.097C256.064,774.097 260.344,772.946 264.164,770.644C267.984,768.341 271.007,765.235 273.23,761.323C275.454,757.412 276.566,753.021 276.566,748.149Z" style="fill:white;"/>
    </g>
</svg>
