<svg xmlns="http://www.w3.org/2000/svg" width="166.895" height="62.36" viewBox="0 0 166.895 62.36">
  <g id="Group" transform="translate(-9.839 -9.911)">
    <g id="Calque_2">
      <g id="Layer_1">
        <g id="Group-2" data-name="Group">
          <path id="Vector" d="M31.614,28.792H41.887v.145C40.8,38.269,32.554,44.853,21.92,44.853A21.539,21.539,0,0,1,6.149,38.486,22.651,22.651,0,0,1,0,22.426,22.651,22.651,0,0,1,6.149,6.366C10.128,2.243,16.711,0,21.92,0A21.39,21.39,0,0,1,35.448,4.413a16.929,16.929,0,0,1,6.439,11.575v.145s-10.273,0-10.273-.072c-1.013-4.2-2.749-6.945-9.622-6.945s-11.647,5.5-11.647,13.311S15.12,35.737,21.992,35.737c4.847,0,8.609-2.677,9.622-6.873Z" transform="translate(9.839 27.273)" fill="#026aff"/>
          <path id="Vector-2" data-name="Vector" d="M46.01.145c9.115,0,14.83,6.366,14.83,16.639V43.912H50.929v-25.9c0-5.57-2.532-8.826-7.6-8.826s-7.958,3.617-7.958,9.983V43.84H25.465v-25.9c0-5.57-2.46-8.826-7.451-8.826s-8.1,3.834-8.1,9.983V43.767H0V1.013H8.681L9.188,5.57h.362C11.43,2.1,15.409,0,20.69,0s9.983,2.315,11.937,6h.362C35.737,2.17,40.44,0,45.865,0Z" transform="translate(57.513 27.346)" fill="#026aff"/>
          <path id="Vector-3" data-name="Vector" d="M0,0H9.911V61.274H0Z" transform="translate(126.311 9.911)" fill="#026aff"/>
          <path id="Vector-4" data-name="Vector" d="M23.584,19.1c7.451,2.026,11.358,4.7,11.358,12.588s-6.8,13.239-16.928,13.239c-5.136,0-9.622-1.375-12.877-4.051A13.639,13.639,0,0,1,0,30.456v-.145s10.2,0,10.2.072c.506,4.051,3.762,6.149,7.885,6.149s6.583-1.736,6.583-4.2S23.15,28.358,19.6,27.346l-6.439-1.809C5.5,23.367,1.23,20.473,1.23,12.877S8.392,0,17.507,0s15.7,5.136,16.422,12.8v.145s-10.2,0-10.2-.072c-.579-2.821-3.183-4.7-6.511-4.7S11.5,10.49,11.5,12.732s1.664,3.545,5.715,4.63l6.439,1.664Z" transform="translate(141.792 27.346)" fill="#026aff"/>
        </g>
      </g>
    </g>
  </g>
</svg>
